<mxfile host="Electron" modified="2024-09-02T21:31:11.766Z" agent="Mozilla/5.0 (X11; Linux x86_64) AppleWebKit/537.36 (KHTML, like Gecko) draw.io/24.6.4 Chrome/124.0.6367.207 Electron/30.0.6 Safari/537.36" etag="FebAd8GbIy2ydhA9xAu2" version="24.6.4" type="device">
  <diagram name="Página-1" id="HoX0y5I8pWD0z8BwwCnm">
    <mxGraphModel dx="2234" dy="1235" grid="0" gridSize="10" guides="1" tooltips="1" connect="1" arrows="1" fold="1" page="0" pageScale="1" pageWidth="827" pageHeight="1169" math="0" shadow="0">
      <root>
        <mxCell id="0" />
        <mxCell id="1" parent="0" />
        <mxCell id="hT-52-UHFEvAAX2J_I_--76" style="edgeStyle=orthogonalEdgeStyle;rounded=0;orthogonalLoop=1;jettySize=auto;html=1;entryX=1;entryY=0.5;entryDx=0;entryDy=0;exitX=0.25;exitY=0;exitDx=0;exitDy=0;dashed=1;endArrow=none;endFill=0;" edge="1" parent="1" source="pnIYlLvs0AxVZ8qZTBsn-83" target="hT-52-UHFEvAAX2J_I_--9">
          <mxGeometry relative="1" as="geometry" />
        </mxCell>
        <mxCell id="pnIYlLvs0AxVZ8qZTBsn-1" value="Usuario" style="swimlane;fontStyle=1;align=center;verticalAlign=top;childLayout=stackLayout;horizontal=1;startSize=26;horizontalStack=0;resizeParent=1;resizeParentMax=0;resizeLast=0;collapsible=1;marginBottom=0;whiteSpace=wrap;html=1;rounded=1;fillColor=#ffe6cc;strokeColor=#d79b00;" parent="1" vertex="1">
          <mxGeometry x="-137" y="193" width="328" height="294" as="geometry" />
        </mxCell>
        <mxCell id="pnIYlLvs0AxVZ8qZTBsn-7" value="- Nome: string" style="text;strokeColor=none;fillColor=none;align=left;verticalAlign=top;spacingLeft=4;spacingRight=4;overflow=hidden;rotatable=0;points=[[0,0.5],[1,0.5]];portConstraint=eastwest;whiteSpace=wrap;html=1;" parent="pnIYlLvs0AxVZ8qZTBsn-1" vertex="1">
          <mxGeometry y="26" width="328" height="26" as="geometry" />
        </mxCell>
        <mxCell id="hT-52-UHFEvAAX2J_I_--62" value="- Telefone: string" style="text;strokeColor=none;fillColor=none;align=left;verticalAlign=top;spacingLeft=4;spacingRight=4;overflow=hidden;rotatable=0;points=[[0,0.5],[1,0.5]];portConstraint=eastwest;whiteSpace=wrap;html=1;" vertex="1" parent="pnIYlLvs0AxVZ8qZTBsn-1">
          <mxGeometry y="52" width="328" height="26" as="geometry" />
        </mxCell>
        <mxCell id="hT-52-UHFEvAAX2J_I_--63" value="- Email: string" style="text;strokeColor=none;fillColor=none;align=left;verticalAlign=top;spacingLeft=4;spacingRight=4;overflow=hidden;rotatable=0;points=[[0,0.5],[1,0.5]];portConstraint=eastwest;whiteSpace=wrap;html=1;" vertex="1" parent="pnIYlLvs0AxVZ8qZTBsn-1">
          <mxGeometry y="78" width="328" height="26" as="geometry" />
        </mxCell>
        <mxCell id="hT-52-UHFEvAAX2J_I_--64" value="- Estado: string" style="text;strokeColor=none;fillColor=none;align=left;verticalAlign=top;spacingLeft=4;spacingRight=4;overflow=hidden;rotatable=0;points=[[0,0.5],[1,0.5]];portConstraint=eastwest;whiteSpace=wrap;html=1;" vertex="1" parent="pnIYlLvs0AxVZ8qZTBsn-1">
          <mxGeometry y="104" width="328" height="26" as="geometry" />
        </mxCell>
        <mxCell id="hT-52-UHFEvAAX2J_I_--65" value="- Senha: string" style="text;strokeColor=none;fillColor=none;align=left;verticalAlign=top;spacingLeft=4;spacingRight=4;overflow=hidden;rotatable=0;points=[[0,0.5],[1,0.5]];portConstraint=eastwest;whiteSpace=wrap;html=1;" vertex="1" parent="pnIYlLvs0AxVZ8qZTBsn-1">
          <mxGeometry y="130" width="328" height="26" as="geometry" />
        </mxCell>
        <mxCell id="pnIYlLvs0AxVZ8qZTBsn-3" value="" style="line;strokeWidth=1;fillColor=none;align=left;verticalAlign=middle;spacingTop=-1;spacingLeft=3;spacingRight=3;rotatable=0;labelPosition=right;points=[];portConstraint=eastwest;strokeColor=inherit;" parent="pnIYlLvs0AxVZ8qZTBsn-1" vertex="1">
          <mxGeometry y="156" width="328" height="8" as="geometry" />
        </mxCell>
        <mxCell id="hT-52-UHFEvAAX2J_I_--50" value="+&amp;nbsp;&lt;span style=&quot;text-align: center;&quot;&gt;Ver&lt;/span&gt;&lt;span style=&quot;background-color: initial; text-align: center;&quot;&gt;ComentarioPublicacao&lt;/span&gt;(id : int): List&amp;lt;Comentario&amp;gt;" style="text;strokeColor=none;fillColor=none;align=left;verticalAlign=top;spacingLeft=4;spacingRight=4;overflow=hidden;rotatable=0;points=[[0,0.5],[1,0.5]];portConstraint=eastwest;whiteSpace=wrap;html=1;" vertex="1" parent="pnIYlLvs0AxVZ8qZTBsn-1">
          <mxGeometry y="164" width="328" height="26" as="geometry" />
        </mxCell>
        <mxCell id="hT-52-UHFEvAAX2J_I_--51" value="+&amp;nbsp;&lt;span style=&quot;text-align: center;&quot;&gt;Fazer&lt;/span&gt;&lt;span style=&quot;background-color: initial; text-align: center;&quot;&gt;Negociacao&lt;/span&gt;(n : Negociacao): Negociacao" style="text;strokeColor=none;fillColor=none;align=left;verticalAlign=top;spacingLeft=4;spacingRight=4;overflow=hidden;rotatable=0;points=[[0,0.5],[1,0.5]];portConstraint=eastwest;whiteSpace=wrap;html=1;" vertex="1" parent="pnIYlLvs0AxVZ8qZTBsn-1">
          <mxGeometry y="190" width="328" height="26" as="geometry" />
        </mxCell>
        <mxCell id="pnIYlLvs0AxVZ8qZTBsn-11" value="+ FazerLogin(u : UsuarioDTO): UsuarioDTO" style="text;strokeColor=none;fillColor=none;align=left;verticalAlign=top;spacingLeft=4;spacingRight=4;overflow=hidden;rotatable=0;points=[[0,0.5],[1,0.5]];portConstraint=eastwest;whiteSpace=wrap;html=1;" parent="pnIYlLvs0AxVZ8qZTBsn-1" vertex="1">
          <mxGeometry y="216" width="328" height="26" as="geometry" />
        </mxCell>
        <mxCell id="bddd_R0ko2qOw5uLOR4B-4" value="+&amp;nbsp;&lt;span style=&quot;text-align: center;&quot;&gt;Ver&lt;/span&gt;&lt;span style=&quot;text-align: center; background-color: initial;&quot;&gt;Perfil&lt;/span&gt;(id : int): UsuarioDTO" style="text;strokeColor=none;fillColor=none;align=left;verticalAlign=top;spacingLeft=4;spacingRight=4;overflow=hidden;rotatable=0;points=[[0,0.5],[1,0.5]];portConstraint=eastwest;whiteSpace=wrap;html=1;" parent="pnIYlLvs0AxVZ8qZTBsn-1" vertex="1">
          <mxGeometry y="242" width="328" height="26" as="geometry" />
        </mxCell>
        <mxCell id="pnIYlLvs0AxVZ8qZTBsn-10" value="+ EditarPerfil(u : Usuario): string" style="text;strokeColor=none;fillColor=none;align=left;verticalAlign=top;spacingLeft=4;spacingRight=4;overflow=hidden;rotatable=0;points=[[0,0.5],[1,0.5]];portConstraint=eastwest;whiteSpace=wrap;html=1;" parent="pnIYlLvs0AxVZ8qZTBsn-1" vertex="1">
          <mxGeometry y="268" width="328" height="26" as="geometry" />
        </mxCell>
        <mxCell id="pnIYlLvs0AxVZ8qZTBsn-13" value="Cliente" style="swimlane;fontStyle=1;align=center;verticalAlign=top;childLayout=stackLayout;horizontal=1;startSize=26;horizontalStack=0;resizeParent=1;resizeParentMax=0;resizeLast=0;collapsible=1;marginBottom=0;whiteSpace=wrap;html=1;rounded=1;fillColor=#ffe6cc;strokeColor=#d79b00;" parent="1" vertex="1">
          <mxGeometry x="-166" y="22" width="397" height="112" as="geometry" />
        </mxCell>
        <mxCell id="pnIYlLvs0AxVZ8qZTBsn-14" value="- Id: int" style="text;strokeColor=none;fillColor=none;align=left;verticalAlign=top;spacingLeft=4;spacingRight=4;overflow=hidden;rotatable=0;points=[[0,0.5],[1,0.5]];portConstraint=eastwest;whiteSpace=wrap;html=1;" parent="pnIYlLvs0AxVZ8qZTBsn-13" vertex="1">
          <mxGeometry y="26" width="397" height="26" as="geometry" />
        </mxCell>
        <mxCell id="pnIYlLvs0AxVZ8qZTBsn-20" value="" style="line;strokeWidth=1;fillColor=none;align=left;verticalAlign=middle;spacingTop=-1;spacingLeft=3;spacingRight=3;rotatable=0;labelPosition=right;points=[];portConstraint=eastwest;strokeColor=inherit;" parent="pnIYlLvs0AxVZ8qZTBsn-13" vertex="1">
          <mxGeometry y="52" width="397" height="8" as="geometry" />
        </mxCell>
        <mxCell id="pnIYlLvs0AxVZ8qZTBsn-24" value="+&amp;nbsp;&lt;span style=&quot;text-align: center;&quot;&gt;Ver&lt;/span&gt;&lt;span style=&quot;background-color: initial; text-align: center;&quot;&gt;PublicaçãoImovel&lt;/span&gt;(): List&amp;lt;Publicacao&amp;gt;" style="text;strokeColor=none;fillColor=none;align=left;verticalAlign=top;spacingLeft=4;spacingRight=4;overflow=hidden;rotatable=0;points=[[0,0.5],[1,0.5]];portConstraint=eastwest;whiteSpace=wrap;html=1;" parent="pnIYlLvs0AxVZ8qZTBsn-13" vertex="1">
          <mxGeometry y="60" width="397" height="26" as="geometry" />
        </mxCell>
        <mxCell id="hT-52-UHFEvAAX2J_I_--52" value="+&amp;nbsp;&lt;span style=&quot;text-align: center;&quot;&gt;Pesquisar&lt;/span&gt;&lt;span style=&quot;background-color: initial; text-align: center;&quot;&gt;PublicaçãoImovel&lt;/span&gt;(p: Publicacao): List&amp;lt;Publicacao&amp;gt;" style="text;strokeColor=none;fillColor=none;align=left;verticalAlign=top;spacingLeft=4;spacingRight=4;overflow=hidden;rotatable=0;points=[[0,0.5],[1,0.5]];portConstraint=eastwest;whiteSpace=wrap;html=1;" vertex="1" parent="pnIYlLvs0AxVZ8qZTBsn-13">
          <mxGeometry y="86" width="397" height="26" as="geometry" />
        </mxCell>
        <mxCell id="hT-52-UHFEvAAX2J_I_--72" style="edgeStyle=orthogonalEdgeStyle;rounded=0;orthogonalLoop=1;jettySize=auto;html=1;entryX=1;entryY=0.5;entryDx=0;entryDy=0;endArrow=none;endFill=0;dashed=1;exitX=0.213;exitY=1.038;exitDx=0;exitDy=0;exitPerimeter=0;" edge="1" parent="1" source="pnIYlLvs0AxVZ8qZTBsn-49" target="pnIYlLvs0AxVZ8qZTBsn-140">
          <mxGeometry relative="1" as="geometry" />
        </mxCell>
        <mxCell id="hT-52-UHFEvAAX2J_I_--77" style="edgeStyle=orthogonalEdgeStyle;rounded=0;orthogonalLoop=1;jettySize=auto;html=1;entryX=1;entryY=0.5;entryDx=0;entryDy=0;dashed=1;endArrow=none;endFill=0;exitX=0.75;exitY=0;exitDx=0;exitDy=0;" edge="1" parent="1" source="pnIYlLvs0AxVZ8qZTBsn-39" target="hT-52-UHFEvAAX2J_I_--6">
          <mxGeometry relative="1" as="geometry" />
        </mxCell>
        <mxCell id="pnIYlLvs0AxVZ8qZTBsn-39" value="ClienteSolicitante" style="swimlane;fontStyle=1;align=center;verticalAlign=top;childLayout=stackLayout;horizontal=1;startSize=26;horizontalStack=0;resizeParent=1;resizeParentMax=0;resizeLast=0;collapsible=1;marginBottom=0;whiteSpace=wrap;html=1;rounded=1;fillColor=#ffe6cc;strokeColor=#d79b00;" parent="1" vertex="1">
          <mxGeometry x="546" y="655" width="352" height="164" as="geometry" />
        </mxCell>
        <mxCell id="pnIYlLvs0AxVZ8qZTBsn-45" value="." style="text;strokeColor=none;fillColor=none;align=left;verticalAlign=top;spacingLeft=4;spacingRight=4;overflow=hidden;rotatable=0;points=[[0,0.5],[1,0.5]];portConstraint=eastwest;whiteSpace=wrap;html=1;" parent="pnIYlLvs0AxVZ8qZTBsn-39" vertex="1">
          <mxGeometry y="26" width="352" height="26" as="geometry" />
        </mxCell>
        <mxCell id="pnIYlLvs0AxVZ8qZTBsn-46" value="" style="line;strokeWidth=1;fillColor=none;align=left;verticalAlign=middle;spacingTop=-1;spacingLeft=3;spacingRight=3;rotatable=0;labelPosition=right;points=[];portConstraint=eastwest;strokeColor=inherit;" parent="pnIYlLvs0AxVZ8qZTBsn-39" vertex="1">
          <mxGeometry y="52" width="352" height="8" as="geometry" />
        </mxCell>
        <mxCell id="pnIYlLvs0AxVZ8qZTBsn-50" value="+&amp;nbsp;&lt;span style=&quot;text-align: center;&quot;&gt;Remover&lt;/span&gt;&lt;span style=&quot;background-color: initial; text-align: center;&quot;&gt;ComentarioPublicacao&lt;/span&gt;(c : Comentario): string" style="text;strokeColor=none;fillColor=none;align=left;verticalAlign=top;spacingLeft=4;spacingRight=4;overflow=hidden;rotatable=0;points=[[0,0.5],[1,0.5]];portConstraint=eastwest;whiteSpace=wrap;html=1;" parent="pnIYlLvs0AxVZ8qZTBsn-39" vertex="1">
          <mxGeometry y="60" width="352" height="26" as="geometry" />
        </mxCell>
        <mxCell id="pnIYlLvs0AxVZ8qZTBsn-47" value="+&amp;nbsp;&lt;span style=&quot;text-align: center;&quot;&gt;Comentar&lt;/span&gt;&lt;span style=&quot;background-color: initial; text-align: center;&quot;&gt;PublicacaoImovel&lt;/span&gt;(c : Comentario): string" style="text;strokeColor=none;fillColor=none;align=left;verticalAlign=top;spacingLeft=4;spacingRight=4;overflow=hidden;rotatable=0;points=[[0,0.5],[1,0.5]];portConstraint=eastwest;whiteSpace=wrap;html=1;" parent="pnIYlLvs0AxVZ8qZTBsn-39" vertex="1">
          <mxGeometry y="86" width="352" height="26" as="geometry" />
        </mxCell>
        <mxCell id="pnIYlLvs0AxVZ8qZTBsn-48" value="+&amp;nbsp;&lt;span style=&quot;text-align: center;&quot;&gt;Editar&lt;/span&gt;&lt;span style=&quot;background-color: initial; text-align: center;&quot;&gt;ComentarioPublicacao&lt;/span&gt;(c : Comentario): string" style="text;strokeColor=none;fillColor=none;align=left;verticalAlign=top;spacingLeft=4;spacingRight=4;overflow=hidden;rotatable=0;points=[[0,0.5],[1,0.5]];portConstraint=eastwest;whiteSpace=wrap;html=1;" parent="pnIYlLvs0AxVZ8qZTBsn-39" vertex="1">
          <mxGeometry y="112" width="352" height="26" as="geometry" />
        </mxCell>
        <mxCell id="pnIYlLvs0AxVZ8qZTBsn-49" value="+&amp;nbsp;&lt;span style=&quot;background-color: initial; text-align: center;&quot;&gt;Responder&lt;/span&gt;&lt;span style=&quot;background-color: initial; text-align: center;&quot;&gt;ComentarioPublicacao&lt;/span&gt;(c : Comentario): string" style="text;strokeColor=none;fillColor=none;align=left;verticalAlign=top;spacingLeft=4;spacingRight=4;overflow=hidden;rotatable=0;points=[[0,0.5],[1,0.5]];portConstraint=eastwest;whiteSpace=wrap;html=1;" parent="pnIYlLvs0AxVZ8qZTBsn-39" vertex="1">
          <mxGeometry y="138" width="352" height="26" as="geometry" />
        </mxCell>
        <mxCell id="pnIYlLvs0AxVZ8qZTBsn-52" value="Administrador" style="swimlane;fontStyle=1;align=center;verticalAlign=top;childLayout=stackLayout;horizontal=1;startSize=26;horizontalStack=0;resizeParent=1;resizeParentMax=0;resizeLast=0;collapsible=1;marginBottom=0;whiteSpace=wrap;html=1;rounded=1;fillColor=#ffe6cc;strokeColor=#d79b00;" parent="1" vertex="1">
          <mxGeometry x="-710" y="732" width="289" height="164" as="geometry" />
        </mxCell>
        <mxCell id="pnIYlLvs0AxVZ8qZTBsn-53" value="." style="text;strokeColor=none;fillColor=none;align=left;verticalAlign=top;spacingLeft=4;spacingRight=4;overflow=hidden;rotatable=0;points=[[0,0.5],[1,0.5]];portConstraint=eastwest;whiteSpace=wrap;html=1;" parent="pnIYlLvs0AxVZ8qZTBsn-52" vertex="1">
          <mxGeometry y="26" width="289" height="26" as="geometry" />
        </mxCell>
        <mxCell id="pnIYlLvs0AxVZ8qZTBsn-59" value="" style="line;strokeWidth=1;fillColor=none;align=left;verticalAlign=middle;spacingTop=-1;spacingLeft=3;spacingRight=3;rotatable=0;labelPosition=right;points=[];portConstraint=eastwest;strokeColor=inherit;" parent="pnIYlLvs0AxVZ8qZTBsn-52" vertex="1">
          <mxGeometry y="52" width="289" height="8" as="geometry" />
        </mxCell>
        <mxCell id="pnIYlLvs0AxVZ8qZTBsn-60" value="+ CadastrarFuncionario(f : Funcionario): string" style="text;strokeColor=none;fillColor=none;align=left;verticalAlign=top;spacingLeft=4;spacingRight=4;overflow=hidden;rotatable=0;points=[[0,0.5],[1,0.5]];portConstraint=eastwest;whiteSpace=wrap;html=1;" parent="pnIYlLvs0AxVZ8qZTBsn-52" vertex="1">
          <mxGeometry y="60" width="289" height="26" as="geometry" />
        </mxCell>
        <mxCell id="pnIYlLvs0AxVZ8qZTBsn-61" value="+ VerFuncionarios(): List&amp;lt;UsuarioDTO&amp;gt;" style="text;strokeColor=none;fillColor=none;align=left;verticalAlign=top;spacingLeft=4;spacingRight=4;overflow=hidden;rotatable=0;points=[[0,0.5],[1,0.5]];portConstraint=eastwest;whiteSpace=wrap;html=1;" parent="pnIYlLvs0AxVZ8qZTBsn-52" vertex="1">
          <mxGeometry y="86" width="289" height="26" as="geometry" />
        </mxCell>
        <mxCell id="pnIYlLvs0AxVZ8qZTBsn-62" value="+ EditarPermissao(f : Funcionario): string" style="text;strokeColor=none;fillColor=none;align=left;verticalAlign=top;spacingLeft=4;spacingRight=4;overflow=hidden;rotatable=0;points=[[0,0.5],[1,0.5]];portConstraint=eastwest;whiteSpace=wrap;html=1;" parent="pnIYlLvs0AxVZ8qZTBsn-52" vertex="1">
          <mxGeometry y="112" width="289" height="26" as="geometry" />
        </mxCell>
        <mxCell id="pnIYlLvs0AxVZ8qZTBsn-63" value="+ VerContratos(): List&amp;lt;Contrato&amp;gt;" style="text;strokeColor=none;fillColor=none;align=left;verticalAlign=top;spacingLeft=4;spacingRight=4;overflow=hidden;rotatable=0;points=[[0,0.5],[1,0.5]];portConstraint=eastwest;whiteSpace=wrap;html=1;" parent="pnIYlLvs0AxVZ8qZTBsn-52" vertex="1">
          <mxGeometry y="138" width="289" height="26" as="geometry" />
        </mxCell>
        <mxCell id="hT-52-UHFEvAAX2J_I_--69" style="edgeStyle=orthogonalEdgeStyle;rounded=0;orthogonalLoop=1;jettySize=auto;html=1;entryX=0;entryY=0.5;entryDx=0;entryDy=0;endArrow=none;endFill=0;dashed=1;" edge="1" parent="1" source="pnIYlLvs0AxVZ8qZTBsn-67" target="pnIYlLvs0AxVZ8qZTBsn-142">
          <mxGeometry relative="1" as="geometry" />
        </mxCell>
        <mxCell id="hT-52-UHFEvAAX2J_I_--75" style="edgeStyle=orthogonalEdgeStyle;rounded=0;orthogonalLoop=1;jettySize=auto;html=1;exitX=0.25;exitY=0;exitDx=0;exitDy=0;dashed=1;endArrow=none;endFill=0;" edge="1" parent="1" source="pnIYlLvs0AxVZ8qZTBsn-67" target="hT-52-UHFEvAAX2J_I_--5">
          <mxGeometry relative="1" as="geometry" />
        </mxCell>
        <mxCell id="pnIYlLvs0AxVZ8qZTBsn-67" value="Corretor" style="swimlane;fontStyle=1;align=center;verticalAlign=top;childLayout=stackLayout;horizontal=1;startSize=26;horizontalStack=0;resizeParent=1;resizeParentMax=0;resizeLast=0;collapsible=1;marginBottom=0;whiteSpace=wrap;html=1;rounded=1;fillColor=#ffe6cc;strokeColor=#d79b00;" parent="1" vertex="1">
          <mxGeometry x="-369" y="545" width="322" height="476" as="geometry" />
        </mxCell>
        <mxCell id="pnIYlLvs0AxVZ8qZTBsn-68" value="- Nivel: string" style="text;strokeColor=none;fillColor=none;align=left;verticalAlign=top;spacingLeft=4;spacingRight=4;overflow=hidden;rotatable=0;points=[[0,0.5],[1,0.5]];portConstraint=eastwest;whiteSpace=wrap;html=1;" parent="pnIYlLvs0AxVZ8qZTBsn-67" vertex="1">
          <mxGeometry y="26" width="322" height="26" as="geometry" />
        </mxCell>
        <mxCell id="pnIYlLvs0AxVZ8qZTBsn-133" value="- Permissoes: List&amp;lt;string&amp;gt;" style="text;strokeColor=none;fillColor=none;align=left;verticalAlign=top;spacingLeft=4;spacingRight=4;overflow=hidden;rotatable=0;points=[[0,0.5],[1,0.5]];portConstraint=eastwest;whiteSpace=wrap;html=1;" parent="pnIYlLvs0AxVZ8qZTBsn-67" vertex="1">
          <mxGeometry y="52" width="322" height="26" as="geometry" />
        </mxCell>
        <mxCell id="pnIYlLvs0AxVZ8qZTBsn-74" value="" style="line;strokeWidth=1;fillColor=none;align=left;verticalAlign=middle;spacingTop=-1;spacingLeft=3;spacingRight=3;rotatable=0;labelPosition=right;points=[];portConstraint=eastwest;strokeColor=inherit;" parent="pnIYlLvs0AxVZ8qZTBsn-67" vertex="1">
          <mxGeometry y="78" width="322" height="8" as="geometry" />
        </mxCell>
        <mxCell id="pnIYlLvs0AxVZ8qZTBsn-75" value="+&amp;nbsp;&lt;span style=&quot;text-align: center;&quot;&gt;VerPedido&lt;/span&gt;&lt;span style=&quot;text-align: center; background-color: initial;&quot;&gt;PublicaçãoImovel&lt;/span&gt;(): List&amp;lt;Publicacao&amp;gt;" style="text;strokeColor=none;fillColor=none;align=left;verticalAlign=top;spacingLeft=4;spacingRight=4;overflow=hidden;rotatable=0;points=[[0,0.5],[1,0.5]];portConstraint=eastwest;whiteSpace=wrap;html=1;" parent="pnIYlLvs0AxVZ8qZTBsn-67" vertex="1">
          <mxGeometry y="86" width="322" height="26" as="geometry" />
        </mxCell>
        <mxCell id="hT-52-UHFEvAAX2J_I_--32" value="+&amp;nbsp;&lt;span style=&quot;text-align: center;&quot;&gt;Validar&lt;/span&gt;&lt;span style=&quot;text-align: center; background-color: initial;&quot;&gt;PedidoPublicacaoImovel&lt;/span&gt;(p: Publicacao): string" style="text;strokeColor=none;fillColor=none;align=left;verticalAlign=top;spacingLeft=4;spacingRight=4;overflow=hidden;rotatable=0;points=[[0,0.5],[1,0.5]];portConstraint=eastwest;whiteSpace=wrap;html=1;" vertex="1" parent="pnIYlLvs0AxVZ8qZTBsn-67">
          <mxGeometry y="112" width="322" height="26" as="geometry" />
        </mxCell>
        <mxCell id="hT-52-UHFEvAAX2J_I_--33" value="+ Rejeitar&lt;span style=&quot;text-align: center; background-color: initial;&quot;&gt;PedidoPublicacaoImovel&lt;/span&gt;(p: Publicacao): string" style="text;strokeColor=none;fillColor=none;align=left;verticalAlign=top;spacingLeft=4;spacingRight=4;overflow=hidden;rotatable=0;points=[[0,0.5],[1,0.5]];portConstraint=eastwest;whiteSpace=wrap;html=1;" vertex="1" parent="pnIYlLvs0AxVZ8qZTBsn-67">
          <mxGeometry y="138" width="322" height="26" as="geometry" />
        </mxCell>
        <mxCell id="hT-52-UHFEvAAX2J_I_--34" value="+&amp;nbsp;&lt;span style=&quot;text-align: center;&quot;&gt;Notificar&lt;/span&gt;&lt;span style=&quot;text-align: center; background-color: initial;&quot;&gt;ProprietarioImovel&lt;/span&gt;(n: Notificacao): string" style="text;strokeColor=none;fillColor=none;align=left;verticalAlign=top;spacingLeft=4;spacingRight=4;overflow=hidden;rotatable=0;points=[[0,0.5],[1,0.5]];portConstraint=eastwest;whiteSpace=wrap;html=1;" vertex="1" parent="pnIYlLvs0AxVZ8qZTBsn-67">
          <mxGeometry y="164" width="322" height="26" as="geometry" />
        </mxCell>
        <mxCell id="hT-52-UHFEvAAX2J_I_--47" value="+&amp;nbsp;&lt;span style=&quot;text-align: center;&quot;&gt;NotificarClientes&lt;/span&gt;(n: Notificacao): string" style="text;strokeColor=none;fillColor=none;align=left;verticalAlign=top;spacingLeft=4;spacingRight=4;overflow=hidden;rotatable=0;points=[[0,0.5],[1,0.5]];portConstraint=eastwest;whiteSpace=wrap;html=1;" vertex="1" parent="pnIYlLvs0AxVZ8qZTBsn-67">
          <mxGeometry y="190" width="322" height="26" as="geometry" />
        </mxCell>
        <mxCell id="pnIYlLvs0AxVZ8qZTBsn-76" value="+&amp;nbsp;&lt;span style=&quot;text-align: center;&quot;&gt;Comentar&lt;/span&gt;&lt;span style=&quot;text-align: center; background-color: initial;&quot;&gt;PublicacaoImovel&lt;/span&gt;(c : Comentario): string" style="text;strokeColor=none;fillColor=none;align=left;verticalAlign=top;spacingLeft=4;spacingRight=4;overflow=hidden;rotatable=0;points=[[0,0.5],[1,0.5]];portConstraint=eastwest;whiteSpace=wrap;html=1;" parent="pnIYlLvs0AxVZ8qZTBsn-67" vertex="1">
          <mxGeometry y="216" width="322" height="26" as="geometry" />
        </mxCell>
        <mxCell id="pnIYlLvs0AxVZ8qZTBsn-78" value="+&amp;nbsp;&lt;span style=&quot;text-align: center; background-color: initial;&quot;&gt;Responder&lt;/span&gt;&lt;span style=&quot;text-align: center; background-color: initial;&quot;&gt;ComentarioPublicacao&lt;/span&gt;(c : Comentario): string" style="text;strokeColor=none;fillColor=none;align=left;verticalAlign=top;spacingLeft=4;spacingRight=4;overflow=hidden;rotatable=0;points=[[0,0.5],[1,0.5]];portConstraint=eastwest;whiteSpace=wrap;html=1;" parent="pnIYlLvs0AxVZ8qZTBsn-67" vertex="1">
          <mxGeometry y="242" width="322" height="26" as="geometry" />
        </mxCell>
        <mxCell id="bddd_R0ko2qOw5uLOR4B-1" value="+&amp;nbsp;&lt;span style=&quot;text-align: center;&quot;&gt;Editar&lt;/span&gt;&lt;span style=&quot;text-align: center; background-color: initial;&quot;&gt;ComentarioPublicacao&lt;/span&gt;(c : Comentario): string" style="text;strokeColor=none;fillColor=none;align=left;verticalAlign=top;spacingLeft=4;spacingRight=4;overflow=hidden;rotatable=0;points=[[0,0.5],[1,0.5]];portConstraint=eastwest;whiteSpace=wrap;html=1;" parent="pnIYlLvs0AxVZ8qZTBsn-67" vertex="1">
          <mxGeometry y="268" width="322" height="26" as="geometry" />
        </mxCell>
        <mxCell id="bddd_R0ko2qOw5uLOR4B-2" value="+&amp;nbsp;&lt;span style=&quot;text-align: center;&quot;&gt;Remover&lt;/span&gt;&lt;span style=&quot;text-align: center; background-color: initial;&quot;&gt;ComentarioPublicacao&lt;/span&gt;(c : Comentario): string" style="text;strokeColor=none;fillColor=none;align=left;verticalAlign=top;spacingLeft=4;spacingRight=4;overflow=hidden;rotatable=0;points=[[0,0.5],[1,0.5]];portConstraint=eastwest;whiteSpace=wrap;html=1;" parent="pnIYlLvs0AxVZ8qZTBsn-67" vertex="1">
          <mxGeometry y="294" width="322" height="26" as="geometry" />
        </mxCell>
        <mxCell id="hT-52-UHFEvAAX2J_I_--27" value="+&amp;nbsp;&lt;span style=&quot;text-align: center;&quot;&gt;Cadastrar&lt;/span&gt;&lt;span style=&quot;text-align: center; background-color: initial;&quot;&gt;CategoriaImovel&lt;/span&gt;(c : Categoria): string" style="text;strokeColor=none;fillColor=none;align=left;verticalAlign=top;spacingLeft=4;spacingRight=4;overflow=hidden;rotatable=0;points=[[0,0.5],[1,0.5]];portConstraint=eastwest;whiteSpace=wrap;html=1;" vertex="1" parent="pnIYlLvs0AxVZ8qZTBsn-67">
          <mxGeometry y="320" width="322" height="26" as="geometry" />
        </mxCell>
        <mxCell id="hT-52-UHFEvAAX2J_I_--28" value="+&amp;nbsp;&lt;span style=&quot;text-align: center;&quot;&gt;Ver&lt;/span&gt;&lt;span style=&quot;text-align: center; background-color: initial;&quot;&gt;CategoriaImovel&lt;/span&gt;(): List&amp;lt;Categoria&amp;gt;" style="text;strokeColor=none;fillColor=none;align=left;verticalAlign=top;spacingLeft=4;spacingRight=4;overflow=hidden;rotatable=0;points=[[0,0.5],[1,0.5]];portConstraint=eastwest;whiteSpace=wrap;html=1;" vertex="1" parent="pnIYlLvs0AxVZ8qZTBsn-67">
          <mxGeometry y="346" width="322" height="26" as="geometry" />
        </mxCell>
        <mxCell id="hT-52-UHFEvAAX2J_I_--29" value="+&amp;nbsp;&lt;span style=&quot;text-align: center;&quot;&gt;Editar&lt;/span&gt;&lt;span style=&quot;text-align: center; background-color: initial;&quot;&gt;CategoriaImovel&lt;/span&gt;(c : Categoria): string" style="text;strokeColor=none;fillColor=none;align=left;verticalAlign=top;spacingLeft=4;spacingRight=4;overflow=hidden;rotatable=0;points=[[0,0.5],[1,0.5]];portConstraint=eastwest;whiteSpace=wrap;html=1;" vertex="1" parent="pnIYlLvs0AxVZ8qZTBsn-67">
          <mxGeometry y="372" width="322" height="26" as="geometry" />
        </mxCell>
        <mxCell id="hT-52-UHFEvAAX2J_I_--30" value="+&amp;nbsp;&lt;span style=&quot;text-align: center;&quot;&gt;Apagar&lt;/span&gt;&lt;span style=&quot;text-align: center; background-color: initial;&quot;&gt;CategoriaImovel&lt;/span&gt;(c: Comentario): string" style="text;strokeColor=none;fillColor=none;align=left;verticalAlign=top;spacingLeft=4;spacingRight=4;overflow=hidden;rotatable=0;points=[[0,0.5],[1,0.5]];portConstraint=eastwest;whiteSpace=wrap;html=1;" vertex="1" parent="pnIYlLvs0AxVZ8qZTBsn-67">
          <mxGeometry y="398" width="322" height="26" as="geometry" />
        </mxCell>
        <mxCell id="hT-52-UHFEvAAX2J_I_--31" value="+&amp;nbsp;&lt;span style=&quot;text-align: center;&quot;&gt;Modificar&lt;/span&gt;&lt;span style=&quot;text-align: center; background-color: initial;&quot;&gt;EstadoPublicacao&lt;/span&gt;(p: Publicacao): string" style="text;strokeColor=none;fillColor=none;align=left;verticalAlign=top;spacingLeft=4;spacingRight=4;overflow=hidden;rotatable=0;points=[[0,0.5],[1,0.5]];portConstraint=eastwest;whiteSpace=wrap;html=1;" vertex="1" parent="pnIYlLvs0AxVZ8qZTBsn-67">
          <mxGeometry y="424" width="322" height="26" as="geometry" />
        </mxCell>
        <mxCell id="hT-52-UHFEvAAX2J_I_--67" value="+&amp;nbsp;&lt;span style=&quot;text-align: center;&quot;&gt;Actualizar&lt;/span&gt;&lt;span style=&quot;background-color: initial; text-align: center;&quot;&gt;ProprietarioImovel&lt;/span&gt;(c : Conversa): string" style="text;strokeColor=none;fillColor=none;align=left;verticalAlign=top;spacingLeft=4;spacingRight=4;overflow=hidden;rotatable=0;points=[[0,0.5],[1,0.5]];portConstraint=eastwest;whiteSpace=wrap;html=1;" vertex="1" parent="pnIYlLvs0AxVZ8qZTBsn-67">
          <mxGeometry y="450" width="322" height="26" as="geometry" />
        </mxCell>
        <mxCell id="pnIYlLvs0AxVZ8qZTBsn-81" style="edgeStyle=orthogonalEdgeStyle;rounded=0;orthogonalLoop=1;jettySize=auto;html=1;entryX=0;entryY=0.5;entryDx=0;entryDy=0;endArrow=block;endFill=1;endSize=15;" parent="1" source="pnIYlLvs0AxVZ8qZTBsn-52" target="pnIYlLvs0AxVZ8qZTBsn-76" edge="1">
          <mxGeometry relative="1" as="geometry" />
        </mxCell>
        <mxCell id="pnIYlLvs0AxVZ8qZTBsn-82" style="edgeStyle=orthogonalEdgeStyle;rounded=0;orthogonalLoop=1;jettySize=auto;html=1;entryX=0;entryY=0.5;entryDx=0;entryDy=0;endArrow=block;endFill=1;endSize=15;" parent="1" source="pnIYlLvs0AxVZ8qZTBsn-67" target="pnIYlLvs0AxVZ8qZTBsn-10" edge="1">
          <mxGeometry relative="1" as="geometry">
            <mxPoint x="-331.9839999999999" y="680" as="targetPoint" />
          </mxGeometry>
        </mxCell>
        <mxCell id="pnIYlLvs0AxVZ8qZTBsn-83" value="ClienteProprietario" style="swimlane;fontStyle=1;align=center;verticalAlign=top;childLayout=stackLayout;horizontal=1;startSize=26;horizontalStack=0;resizeParent=1;resizeParentMax=0;resizeLast=0;collapsible=1;marginBottom=0;whiteSpace=wrap;html=1;rounded=1;fillColor=#ffe6cc;strokeColor=#d79b00;" parent="1" vertex="1">
          <mxGeometry x="203" y="648" width="317" height="138" as="geometry" />
        </mxCell>
        <mxCell id="pnIYlLvs0AxVZ8qZTBsn-89" value="." style="text;strokeColor=none;fillColor=none;align=left;verticalAlign=top;spacingLeft=4;spacingRight=4;overflow=hidden;rotatable=0;points=[[0,0.5],[1,0.5]];portConstraint=eastwest;whiteSpace=wrap;html=1;" parent="pnIYlLvs0AxVZ8qZTBsn-83" vertex="1">
          <mxGeometry y="26" width="317" height="26" as="geometry" />
        </mxCell>
        <mxCell id="pnIYlLvs0AxVZ8qZTBsn-90" value="" style="line;strokeWidth=1;fillColor=none;align=left;verticalAlign=middle;spacingTop=-1;spacingLeft=3;spacingRight=3;rotatable=0;labelPosition=right;points=[];portConstraint=eastwest;strokeColor=inherit;" parent="pnIYlLvs0AxVZ8qZTBsn-83" vertex="1">
          <mxGeometry y="52" width="317" height="8" as="geometry" />
        </mxCell>
        <mxCell id="pnIYlLvs0AxVZ8qZTBsn-91" value="+ Solicitar&lt;span style=&quot;text-align: center;&quot;&gt;Publicacao&lt;/span&gt;&lt;span style=&quot;text-align: center; background-color: initial;&quot;&gt;Imovel&lt;/span&gt;(s : Publicacao): string" style="text;strokeColor=none;fillColor=none;align=left;verticalAlign=top;spacingLeft=4;spacingRight=4;overflow=hidden;rotatable=0;points=[[0,0.5],[1,0.5]];portConstraint=eastwest;whiteSpace=wrap;html=1;" parent="pnIYlLvs0AxVZ8qZTBsn-83" vertex="1">
          <mxGeometry y="60" width="317" height="26" as="geometry" />
        </mxCell>
        <mxCell id="hT-52-UHFEvAAX2J_I_--66" value="+ VerSolicitacoes(): List&amp;lt;Publicacao&amp;gt;" style="text;strokeColor=none;fillColor=none;align=left;verticalAlign=top;spacingLeft=4;spacingRight=4;overflow=hidden;rotatable=0;points=[[0,0.5],[1,0.5]];portConstraint=eastwest;whiteSpace=wrap;html=1;" vertex="1" parent="pnIYlLvs0AxVZ8qZTBsn-83">
          <mxGeometry y="86" width="317" height="26" as="geometry" />
        </mxCell>
        <mxCell id="hT-52-UHFEvAAX2J_I_--68" value="+ VerNotificacoesCorretor(): List&amp;lt;Conversa&amp;gt;" style="text;strokeColor=none;fillColor=none;align=left;verticalAlign=top;spacingLeft=4;spacingRight=4;overflow=hidden;rotatable=0;points=[[0,0.5],[1,0.5]];portConstraint=eastwest;whiteSpace=wrap;html=1;" vertex="1" parent="pnIYlLvs0AxVZ8qZTBsn-83">
          <mxGeometry y="112" width="317" height="26" as="geometry" />
        </mxCell>
        <mxCell id="pnIYlLvs0AxVZ8qZTBsn-114" style="edgeStyle=orthogonalEdgeStyle;rounded=0;orthogonalLoop=1;jettySize=auto;html=1;entryX=0.484;entryY=1;entryDx=0;entryDy=0;endArrow=blockThin;endFill=1;entryPerimeter=0;endSize=15;" parent="1" source="pnIYlLvs0AxVZ8qZTBsn-1" target="hT-52-UHFEvAAX2J_I_--52" edge="1">
          <mxGeometry relative="1" as="geometry">
            <mxPoint x="-167" y="87" as="targetPoint" />
          </mxGeometry>
        </mxCell>
        <mxCell id="pnIYlLvs0AxVZ8qZTBsn-115" value="UsuarioCliente" style="swimlane;fontStyle=1;align=center;verticalAlign=top;childLayout=stackLayout;horizontal=1;startSize=26;horizontalStack=0;resizeParent=1;resizeParentMax=0;resizeLast=0;collapsible=1;marginBottom=0;whiteSpace=wrap;html=1;rounded=1;fillColor=#ffe6cc;strokeColor=#d79b00;" parent="1" vertex="1">
          <mxGeometry x="409" y="480" width="268" height="86" as="geometry" />
        </mxCell>
        <mxCell id="pnIYlLvs0AxVZ8qZTBsn-121" value="- Nif: string" style="text;strokeColor=none;fillColor=none;align=left;verticalAlign=top;spacingLeft=4;spacingRight=4;overflow=hidden;rotatable=0;points=[[0,0.5],[1,0.5]];portConstraint=eastwest;whiteSpace=wrap;html=1;" parent="pnIYlLvs0AxVZ8qZTBsn-115" vertex="1">
          <mxGeometry y="26" width="268" height="26" as="geometry" />
        </mxCell>
        <mxCell id="pnIYlLvs0AxVZ8qZTBsn-122" value="" style="line;strokeWidth=1;fillColor=none;align=left;verticalAlign=middle;spacingTop=-1;spacingLeft=3;spacingRight=3;rotatable=0;labelPosition=right;points=[];portConstraint=eastwest;strokeColor=inherit;" parent="pnIYlLvs0AxVZ8qZTBsn-115" vertex="1">
          <mxGeometry y="52" width="268" height="8" as="geometry" />
        </mxCell>
        <mxCell id="pnIYlLvs0AxVZ8qZTBsn-123" value="+ CriarConta(u : Usuario): string" style="text;strokeColor=none;fillColor=none;align=left;verticalAlign=top;spacingLeft=4;spacingRight=4;overflow=hidden;rotatable=0;points=[[0,0.5],[1,0.5]];portConstraint=eastwest;whiteSpace=wrap;html=1;" parent="pnIYlLvs0AxVZ8qZTBsn-115" vertex="1">
          <mxGeometry y="60" width="268" height="26" as="geometry" />
        </mxCell>
        <mxCell id="pnIYlLvs0AxVZ8qZTBsn-128" style="edgeStyle=orthogonalEdgeStyle;rounded=0;orthogonalLoop=1;jettySize=auto;html=1;entryX=1;entryY=0.5;entryDx=0;entryDy=0;endArrow=block;endFill=1;endSize=15;" parent="1" source="pnIYlLvs0AxVZ8qZTBsn-115" target="hT-52-UHFEvAAX2J_I_--51" edge="1">
          <mxGeometry relative="1" as="geometry" />
        </mxCell>
        <mxCell id="pnIYlLvs0AxVZ8qZTBsn-129" style="edgeStyle=orthogonalEdgeStyle;rounded=0;orthogonalLoop=1;jettySize=auto;html=1;endArrow=block;endFill=1;endSize=15;" parent="1" source="pnIYlLvs0AxVZ8qZTBsn-83" target="pnIYlLvs0AxVZ8qZTBsn-123" edge="1">
          <mxGeometry relative="1" as="geometry">
            <mxPoint x="290.0920000000001" y="628" as="targetPoint" />
          </mxGeometry>
        </mxCell>
        <mxCell id="pnIYlLvs0AxVZ8qZTBsn-130" style="edgeStyle=orthogonalEdgeStyle;rounded=0;orthogonalLoop=1;jettySize=auto;html=1;endArrow=block;endFill=1;endSize=15;" parent="1" source="pnIYlLvs0AxVZ8qZTBsn-39" target="pnIYlLvs0AxVZ8qZTBsn-123" edge="1">
          <mxGeometry relative="1" as="geometry">
            <mxPoint x="386.03600000000006" y="628.988" as="targetPoint" />
          </mxGeometry>
        </mxCell>
        <mxCell id="pnIYlLvs0AxVZ8qZTBsn-134" value="Publicacao" style="swimlane;fontStyle=1;align=center;verticalAlign=top;childLayout=stackLayout;horizontal=1;startSize=26;horizontalStack=0;resizeParent=1;resizeParentMax=0;resizeLast=0;collapsible=1;marginBottom=0;whiteSpace=wrap;html=1;rounded=1;fillColor=#ffe6cc;strokeColor=#d79b00;" parent="1" vertex="1">
          <mxGeometry x="84" y="874" width="268" height="294" as="geometry" />
        </mxCell>
        <mxCell id="pnIYlLvs0AxVZ8qZTBsn-135" value="- Id: int" style="text;strokeColor=none;fillColor=none;align=left;verticalAlign=top;spacingLeft=4;spacingRight=4;overflow=hidden;rotatable=0;points=[[0,0.5],[1,0.5]];portConstraint=eastwest;whiteSpace=wrap;html=1;" parent="pnIYlLvs0AxVZ8qZTBsn-134" vertex="1">
          <mxGeometry y="26" width="268" height="26" as="geometry" />
        </mxCell>
        <mxCell id="pnIYlLvs0AxVZ8qZTBsn-136" value="- Nome: string" style="text;strokeColor=none;fillColor=none;align=left;verticalAlign=top;spacingLeft=4;spacingRight=4;overflow=hidden;rotatable=0;points=[[0,0.5],[1,0.5]];portConstraint=eastwest;whiteSpace=wrap;html=1;" parent="pnIYlLvs0AxVZ8qZTBsn-134" vertex="1">
          <mxGeometry y="52" width="268" height="26" as="geometry" />
        </mxCell>
        <mxCell id="pnIYlLvs0AxVZ8qZTBsn-137" value="- Telefone: string" style="text;strokeColor=none;fillColor=none;align=left;verticalAlign=top;spacingLeft=4;spacingRight=4;overflow=hidden;rotatable=0;points=[[0,0.5],[1,0.5]];portConstraint=eastwest;whiteSpace=wrap;html=1;" parent="pnIYlLvs0AxVZ8qZTBsn-134" vertex="1">
          <mxGeometry y="78" width="268" height="26" as="geometry" />
        </mxCell>
        <mxCell id="pnIYlLvs0AxVZ8qZTBsn-138" value="- Senha: string" style="text;strokeColor=none;fillColor=none;align=left;verticalAlign=top;spacingLeft=4;spacingRight=4;overflow=hidden;rotatable=0;points=[[0,0.5],[1,0.5]];portConstraint=eastwest;whiteSpace=wrap;html=1;" parent="pnIYlLvs0AxVZ8qZTBsn-134" vertex="1">
          <mxGeometry y="104" width="268" height="26" as="geometry" />
        </mxCell>
        <mxCell id="pnIYlLvs0AxVZ8qZTBsn-139" value="- Email: string" style="text;strokeColor=none;fillColor=none;align=left;verticalAlign=top;spacingLeft=4;spacingRight=4;overflow=hidden;rotatable=0;points=[[0,0.5],[1,0.5]];portConstraint=eastwest;whiteSpace=wrap;html=1;" parent="pnIYlLvs0AxVZ8qZTBsn-134" vertex="1">
          <mxGeometry y="130" width="268" height="26" as="geometry" />
        </mxCell>
        <mxCell id="pnIYlLvs0AxVZ8qZTBsn-140" value="- Nif: string" style="text;strokeColor=none;fillColor=none;align=left;verticalAlign=top;spacingLeft=4;spacingRight=4;overflow=hidden;rotatable=0;points=[[0,0.5],[1,0.5]];portConstraint=eastwest;whiteSpace=wrap;html=1;" parent="pnIYlLvs0AxVZ8qZTBsn-134" vertex="1">
          <mxGeometry y="156" width="268" height="26" as="geometry" />
        </mxCell>
        <mxCell id="pnIYlLvs0AxVZ8qZTBsn-141" value="" style="line;strokeWidth=1;fillColor=none;align=left;verticalAlign=middle;spacingTop=-1;spacingLeft=3;spacingRight=3;rotatable=0;labelPosition=right;points=[];portConstraint=eastwest;strokeColor=inherit;" parent="pnIYlLvs0AxVZ8qZTBsn-134" vertex="1">
          <mxGeometry y="182" width="268" height="8" as="geometry" />
        </mxCell>
        <mxCell id="pnIYlLvs0AxVZ8qZTBsn-142" value="+ CriarConta(u : Usuario): string" style="text;strokeColor=none;fillColor=none;align=left;verticalAlign=top;spacingLeft=4;spacingRight=4;overflow=hidden;rotatable=0;points=[[0,0.5],[1,0.5]];portConstraint=eastwest;whiteSpace=wrap;html=1;" parent="pnIYlLvs0AxVZ8qZTBsn-134" vertex="1">
          <mxGeometry y="190" width="268" height="26" as="geometry" />
        </mxCell>
        <mxCell id="pnIYlLvs0AxVZ8qZTBsn-143" value="+ EditarConta(u : Usuario): string" style="text;strokeColor=none;fillColor=none;align=left;verticalAlign=top;spacingLeft=4;spacingRight=4;overflow=hidden;rotatable=0;points=[[0,0.5],[1,0.5]];portConstraint=eastwest;whiteSpace=wrap;html=1;" parent="pnIYlLvs0AxVZ8qZTBsn-134" vertex="1">
          <mxGeometry y="216" width="268" height="26" as="geometry" />
        </mxCell>
        <mxCell id="pnIYlLvs0AxVZ8qZTBsn-144" value="+ FazerLogin(u : UsuarioDTO): UsuarioDTO" style="text;strokeColor=none;fillColor=none;align=left;verticalAlign=top;spacingLeft=4;spacingRight=4;overflow=hidden;rotatable=0;points=[[0,0.5],[1,0.5]];portConstraint=eastwest;whiteSpace=wrap;html=1;" parent="pnIYlLvs0AxVZ8qZTBsn-134" vertex="1">
          <mxGeometry y="242" width="268" height="26" as="geometry" />
        </mxCell>
        <mxCell id="pnIYlLvs0AxVZ8qZTBsn-145" value="+ FazerLogOut(id : int): string" style="text;strokeColor=none;fillColor=none;align=left;verticalAlign=top;spacingLeft=4;spacingRight=4;overflow=hidden;rotatable=0;points=[[0,0.5],[1,0.5]];portConstraint=eastwest;whiteSpace=wrap;html=1;" parent="pnIYlLvs0AxVZ8qZTBsn-134" vertex="1">
          <mxGeometry y="268" width="268" height="26" as="geometry" />
        </mxCell>
        <mxCell id="pnIYlLvs0AxVZ8qZTBsn-146" value="Imoveis" style="swimlane;fontStyle=1;align=center;verticalAlign=top;childLayout=stackLayout;horizontal=1;startSize=26;horizontalStack=0;resizeParent=1;resizeParentMax=0;resizeLast=0;collapsible=1;marginBottom=0;whiteSpace=wrap;html=1;rounded=1;fillColor=#ffe6cc;strokeColor=#d79b00;" parent="1" vertex="1">
          <mxGeometry x="-15" y="1277" width="268" height="294" as="geometry" />
        </mxCell>
        <mxCell id="pnIYlLvs0AxVZ8qZTBsn-147" value="- Id: int" style="text;strokeColor=none;fillColor=none;align=left;verticalAlign=top;spacingLeft=4;spacingRight=4;overflow=hidden;rotatable=0;points=[[0,0.5],[1,0.5]];portConstraint=eastwest;whiteSpace=wrap;html=1;" parent="pnIYlLvs0AxVZ8qZTBsn-146" vertex="1">
          <mxGeometry y="26" width="268" height="26" as="geometry" />
        </mxCell>
        <mxCell id="pnIYlLvs0AxVZ8qZTBsn-148" value="- Nome: string" style="text;strokeColor=none;fillColor=none;align=left;verticalAlign=top;spacingLeft=4;spacingRight=4;overflow=hidden;rotatable=0;points=[[0,0.5],[1,0.5]];portConstraint=eastwest;whiteSpace=wrap;html=1;" parent="pnIYlLvs0AxVZ8qZTBsn-146" vertex="1">
          <mxGeometry y="52" width="268" height="26" as="geometry" />
        </mxCell>
        <mxCell id="pnIYlLvs0AxVZ8qZTBsn-149" value="- Telefone: string" style="text;strokeColor=none;fillColor=none;align=left;verticalAlign=top;spacingLeft=4;spacingRight=4;overflow=hidden;rotatable=0;points=[[0,0.5],[1,0.5]];portConstraint=eastwest;whiteSpace=wrap;html=1;" parent="pnIYlLvs0AxVZ8qZTBsn-146" vertex="1">
          <mxGeometry y="78" width="268" height="26" as="geometry" />
        </mxCell>
        <mxCell id="pnIYlLvs0AxVZ8qZTBsn-150" value="- Senha: string" style="text;strokeColor=none;fillColor=none;align=left;verticalAlign=top;spacingLeft=4;spacingRight=4;overflow=hidden;rotatable=0;points=[[0,0.5],[1,0.5]];portConstraint=eastwest;whiteSpace=wrap;html=1;" parent="pnIYlLvs0AxVZ8qZTBsn-146" vertex="1">
          <mxGeometry y="104" width="268" height="26" as="geometry" />
        </mxCell>
        <mxCell id="pnIYlLvs0AxVZ8qZTBsn-151" value="- Email: string" style="text;strokeColor=none;fillColor=none;align=left;verticalAlign=top;spacingLeft=4;spacingRight=4;overflow=hidden;rotatable=0;points=[[0,0.5],[1,0.5]];portConstraint=eastwest;whiteSpace=wrap;html=1;" parent="pnIYlLvs0AxVZ8qZTBsn-146" vertex="1">
          <mxGeometry y="130" width="268" height="26" as="geometry" />
        </mxCell>
        <mxCell id="pnIYlLvs0AxVZ8qZTBsn-152" value="- Nif: string" style="text;strokeColor=none;fillColor=none;align=left;verticalAlign=top;spacingLeft=4;spacingRight=4;overflow=hidden;rotatable=0;points=[[0,0.5],[1,0.5]];portConstraint=eastwest;whiteSpace=wrap;html=1;" parent="pnIYlLvs0AxVZ8qZTBsn-146" vertex="1">
          <mxGeometry y="156" width="268" height="26" as="geometry" />
        </mxCell>
        <mxCell id="pnIYlLvs0AxVZ8qZTBsn-153" value="" style="line;strokeWidth=1;fillColor=none;align=left;verticalAlign=middle;spacingTop=-1;spacingLeft=3;spacingRight=3;rotatable=0;labelPosition=right;points=[];portConstraint=eastwest;strokeColor=inherit;" parent="pnIYlLvs0AxVZ8qZTBsn-146" vertex="1">
          <mxGeometry y="182" width="268" height="8" as="geometry" />
        </mxCell>
        <mxCell id="pnIYlLvs0AxVZ8qZTBsn-154" value="+ CriarConta(u : Usuario): string" style="text;strokeColor=none;fillColor=none;align=left;verticalAlign=top;spacingLeft=4;spacingRight=4;overflow=hidden;rotatable=0;points=[[0,0.5],[1,0.5]];portConstraint=eastwest;whiteSpace=wrap;html=1;" parent="pnIYlLvs0AxVZ8qZTBsn-146" vertex="1">
          <mxGeometry y="190" width="268" height="26" as="geometry" />
        </mxCell>
        <mxCell id="pnIYlLvs0AxVZ8qZTBsn-155" value="+ EditarConta(u : Usuario): string" style="text;strokeColor=none;fillColor=none;align=left;verticalAlign=top;spacingLeft=4;spacingRight=4;overflow=hidden;rotatable=0;points=[[0,0.5],[1,0.5]];portConstraint=eastwest;whiteSpace=wrap;html=1;" parent="pnIYlLvs0AxVZ8qZTBsn-146" vertex="1">
          <mxGeometry y="216" width="268" height="26" as="geometry" />
        </mxCell>
        <mxCell id="pnIYlLvs0AxVZ8qZTBsn-156" value="+ FazerLogin(u : UsuarioDTO): UsuarioDTO" style="text;strokeColor=none;fillColor=none;align=left;verticalAlign=top;spacingLeft=4;spacingRight=4;overflow=hidden;rotatable=0;points=[[0,0.5],[1,0.5]];portConstraint=eastwest;whiteSpace=wrap;html=1;" parent="pnIYlLvs0AxVZ8qZTBsn-146" vertex="1">
          <mxGeometry y="242" width="268" height="26" as="geometry" />
        </mxCell>
        <mxCell id="pnIYlLvs0AxVZ8qZTBsn-157" value="+ FazerLogOut(id : int): string" style="text;strokeColor=none;fillColor=none;align=left;verticalAlign=top;spacingLeft=4;spacingRight=4;overflow=hidden;rotatable=0;points=[[0,0.5],[1,0.5]];portConstraint=eastwest;whiteSpace=wrap;html=1;" parent="pnIYlLvs0AxVZ8qZTBsn-146" vertex="1">
          <mxGeometry y="268" width="268" height="26" as="geometry" />
        </mxCell>
        <mxCell id="pnIYlLvs0AxVZ8qZTBsn-158" value="CategoriaImovel" style="swimlane;fontStyle=1;align=center;verticalAlign=top;childLayout=stackLayout;horizontal=1;startSize=26;horizontalStack=0;resizeParent=1;resizeParentMax=0;resizeLast=0;collapsible=1;marginBottom=0;whiteSpace=wrap;html=1;rounded=1;fillColor=#ffe6cc;strokeColor=#d79b00;" parent="1" vertex="1">
          <mxGeometry x="335" y="1181" width="268" height="294" as="geometry" />
        </mxCell>
        <mxCell id="pnIYlLvs0AxVZ8qZTBsn-159" value="- Id: int" style="text;strokeColor=none;fillColor=none;align=left;verticalAlign=top;spacingLeft=4;spacingRight=4;overflow=hidden;rotatable=0;points=[[0,0.5],[1,0.5]];portConstraint=eastwest;whiteSpace=wrap;html=1;" parent="pnIYlLvs0AxVZ8qZTBsn-158" vertex="1">
          <mxGeometry y="26" width="268" height="26" as="geometry" />
        </mxCell>
        <mxCell id="pnIYlLvs0AxVZ8qZTBsn-160" value="- Nome: string" style="text;strokeColor=none;fillColor=none;align=left;verticalAlign=top;spacingLeft=4;spacingRight=4;overflow=hidden;rotatable=0;points=[[0,0.5],[1,0.5]];portConstraint=eastwest;whiteSpace=wrap;html=1;" parent="pnIYlLvs0AxVZ8qZTBsn-158" vertex="1">
          <mxGeometry y="52" width="268" height="26" as="geometry" />
        </mxCell>
        <mxCell id="pnIYlLvs0AxVZ8qZTBsn-161" value="- Telefone: string" style="text;strokeColor=none;fillColor=none;align=left;verticalAlign=top;spacingLeft=4;spacingRight=4;overflow=hidden;rotatable=0;points=[[0,0.5],[1,0.5]];portConstraint=eastwest;whiteSpace=wrap;html=1;" parent="pnIYlLvs0AxVZ8qZTBsn-158" vertex="1">
          <mxGeometry y="78" width="268" height="26" as="geometry" />
        </mxCell>
        <mxCell id="pnIYlLvs0AxVZ8qZTBsn-162" value="- Senha: string" style="text;strokeColor=none;fillColor=none;align=left;verticalAlign=top;spacingLeft=4;spacingRight=4;overflow=hidden;rotatable=0;points=[[0,0.5],[1,0.5]];portConstraint=eastwest;whiteSpace=wrap;html=1;" parent="pnIYlLvs0AxVZ8qZTBsn-158" vertex="1">
          <mxGeometry y="104" width="268" height="26" as="geometry" />
        </mxCell>
        <mxCell id="pnIYlLvs0AxVZ8qZTBsn-163" value="- Email: string" style="text;strokeColor=none;fillColor=none;align=left;verticalAlign=top;spacingLeft=4;spacingRight=4;overflow=hidden;rotatable=0;points=[[0,0.5],[1,0.5]];portConstraint=eastwest;whiteSpace=wrap;html=1;" parent="pnIYlLvs0AxVZ8qZTBsn-158" vertex="1">
          <mxGeometry y="130" width="268" height="26" as="geometry" />
        </mxCell>
        <mxCell id="pnIYlLvs0AxVZ8qZTBsn-164" value="- Nif: string" style="text;strokeColor=none;fillColor=none;align=left;verticalAlign=top;spacingLeft=4;spacingRight=4;overflow=hidden;rotatable=0;points=[[0,0.5],[1,0.5]];portConstraint=eastwest;whiteSpace=wrap;html=1;" parent="pnIYlLvs0AxVZ8qZTBsn-158" vertex="1">
          <mxGeometry y="156" width="268" height="26" as="geometry" />
        </mxCell>
        <mxCell id="pnIYlLvs0AxVZ8qZTBsn-165" value="" style="line;strokeWidth=1;fillColor=none;align=left;verticalAlign=middle;spacingTop=-1;spacingLeft=3;spacingRight=3;rotatable=0;labelPosition=right;points=[];portConstraint=eastwest;strokeColor=inherit;" parent="pnIYlLvs0AxVZ8qZTBsn-158" vertex="1">
          <mxGeometry y="182" width="268" height="8" as="geometry" />
        </mxCell>
        <mxCell id="pnIYlLvs0AxVZ8qZTBsn-166" value="+ CriarConta(u : Usuario): string" style="text;strokeColor=none;fillColor=none;align=left;verticalAlign=top;spacingLeft=4;spacingRight=4;overflow=hidden;rotatable=0;points=[[0,0.5],[1,0.5]];portConstraint=eastwest;whiteSpace=wrap;html=1;" parent="pnIYlLvs0AxVZ8qZTBsn-158" vertex="1">
          <mxGeometry y="190" width="268" height="26" as="geometry" />
        </mxCell>
        <mxCell id="pnIYlLvs0AxVZ8qZTBsn-167" value="+ EditarConta(u : Usuario): string" style="text;strokeColor=none;fillColor=none;align=left;verticalAlign=top;spacingLeft=4;spacingRight=4;overflow=hidden;rotatable=0;points=[[0,0.5],[1,0.5]];portConstraint=eastwest;whiteSpace=wrap;html=1;" parent="pnIYlLvs0AxVZ8qZTBsn-158" vertex="1">
          <mxGeometry y="216" width="268" height="26" as="geometry" />
        </mxCell>
        <mxCell id="pnIYlLvs0AxVZ8qZTBsn-168" value="+ FazerLogin(u : UsuarioDTO): UsuarioDTO" style="text;strokeColor=none;fillColor=none;align=left;verticalAlign=top;spacingLeft=4;spacingRight=4;overflow=hidden;rotatable=0;points=[[0,0.5],[1,0.5]];portConstraint=eastwest;whiteSpace=wrap;html=1;" parent="pnIYlLvs0AxVZ8qZTBsn-158" vertex="1">
          <mxGeometry y="242" width="268" height="26" as="geometry" />
        </mxCell>
        <mxCell id="pnIYlLvs0AxVZ8qZTBsn-169" value="+ FazerLogOut(id : int): string" style="text;strokeColor=none;fillColor=none;align=left;verticalAlign=top;spacingLeft=4;spacingRight=4;overflow=hidden;rotatable=0;points=[[0,0.5],[1,0.5]];portConstraint=eastwest;whiteSpace=wrap;html=1;" parent="pnIYlLvs0AxVZ8qZTBsn-158" vertex="1">
          <mxGeometry y="268" width="268" height="26" as="geometry" />
        </mxCell>
        <mxCell id="pnIYlLvs0AxVZ8qZTBsn-170" value="FotoImovel" style="swimlane;fontStyle=1;align=center;verticalAlign=top;childLayout=stackLayout;horizontal=1;startSize=26;horizontalStack=0;resizeParent=1;resizeParentMax=0;resizeLast=0;collapsible=1;marginBottom=0;whiteSpace=wrap;html=1;rounded=1;fillColor=#ffe6cc;strokeColor=#d79b00;" parent="1" vertex="1">
          <mxGeometry x="284" y="1496" width="268" height="294" as="geometry" />
        </mxCell>
        <mxCell id="pnIYlLvs0AxVZ8qZTBsn-171" value="- Id: int" style="text;strokeColor=none;fillColor=none;align=left;verticalAlign=top;spacingLeft=4;spacingRight=4;overflow=hidden;rotatable=0;points=[[0,0.5],[1,0.5]];portConstraint=eastwest;whiteSpace=wrap;html=1;" parent="pnIYlLvs0AxVZ8qZTBsn-170" vertex="1">
          <mxGeometry y="26" width="268" height="26" as="geometry" />
        </mxCell>
        <mxCell id="pnIYlLvs0AxVZ8qZTBsn-172" value="- Nome: string" style="text;strokeColor=none;fillColor=none;align=left;verticalAlign=top;spacingLeft=4;spacingRight=4;overflow=hidden;rotatable=0;points=[[0,0.5],[1,0.5]];portConstraint=eastwest;whiteSpace=wrap;html=1;" parent="pnIYlLvs0AxVZ8qZTBsn-170" vertex="1">
          <mxGeometry y="52" width="268" height="26" as="geometry" />
        </mxCell>
        <mxCell id="pnIYlLvs0AxVZ8qZTBsn-173" value="- Telefone: string" style="text;strokeColor=none;fillColor=none;align=left;verticalAlign=top;spacingLeft=4;spacingRight=4;overflow=hidden;rotatable=0;points=[[0,0.5],[1,0.5]];portConstraint=eastwest;whiteSpace=wrap;html=1;" parent="pnIYlLvs0AxVZ8qZTBsn-170" vertex="1">
          <mxGeometry y="78" width="268" height="26" as="geometry" />
        </mxCell>
        <mxCell id="pnIYlLvs0AxVZ8qZTBsn-174" value="- Senha: string" style="text;strokeColor=none;fillColor=none;align=left;verticalAlign=top;spacingLeft=4;spacingRight=4;overflow=hidden;rotatable=0;points=[[0,0.5],[1,0.5]];portConstraint=eastwest;whiteSpace=wrap;html=1;" parent="pnIYlLvs0AxVZ8qZTBsn-170" vertex="1">
          <mxGeometry y="104" width="268" height="26" as="geometry" />
        </mxCell>
        <mxCell id="pnIYlLvs0AxVZ8qZTBsn-175" value="- Email: string" style="text;strokeColor=none;fillColor=none;align=left;verticalAlign=top;spacingLeft=4;spacingRight=4;overflow=hidden;rotatable=0;points=[[0,0.5],[1,0.5]];portConstraint=eastwest;whiteSpace=wrap;html=1;" parent="pnIYlLvs0AxVZ8qZTBsn-170" vertex="1">
          <mxGeometry y="130" width="268" height="26" as="geometry" />
        </mxCell>
        <mxCell id="pnIYlLvs0AxVZ8qZTBsn-176" value="- Nif: string" style="text;strokeColor=none;fillColor=none;align=left;verticalAlign=top;spacingLeft=4;spacingRight=4;overflow=hidden;rotatable=0;points=[[0,0.5],[1,0.5]];portConstraint=eastwest;whiteSpace=wrap;html=1;" parent="pnIYlLvs0AxVZ8qZTBsn-170" vertex="1">
          <mxGeometry y="156" width="268" height="26" as="geometry" />
        </mxCell>
        <mxCell id="pnIYlLvs0AxVZ8qZTBsn-177" value="" style="line;strokeWidth=1;fillColor=none;align=left;verticalAlign=middle;spacingTop=-1;spacingLeft=3;spacingRight=3;rotatable=0;labelPosition=right;points=[];portConstraint=eastwest;strokeColor=inherit;" parent="pnIYlLvs0AxVZ8qZTBsn-170" vertex="1">
          <mxGeometry y="182" width="268" height="8" as="geometry" />
        </mxCell>
        <mxCell id="pnIYlLvs0AxVZ8qZTBsn-178" value="+ CriarConta(u : Usuario): string" style="text;strokeColor=none;fillColor=none;align=left;verticalAlign=top;spacingLeft=4;spacingRight=4;overflow=hidden;rotatable=0;points=[[0,0.5],[1,0.5]];portConstraint=eastwest;whiteSpace=wrap;html=1;" parent="pnIYlLvs0AxVZ8qZTBsn-170" vertex="1">
          <mxGeometry y="190" width="268" height="26" as="geometry" />
        </mxCell>
        <mxCell id="pnIYlLvs0AxVZ8qZTBsn-179" value="+ EditarConta(u : Usuario): string" style="text;strokeColor=none;fillColor=none;align=left;verticalAlign=top;spacingLeft=4;spacingRight=4;overflow=hidden;rotatable=0;points=[[0,0.5],[1,0.5]];portConstraint=eastwest;whiteSpace=wrap;html=1;" parent="pnIYlLvs0AxVZ8qZTBsn-170" vertex="1">
          <mxGeometry y="216" width="268" height="26" as="geometry" />
        </mxCell>
        <mxCell id="pnIYlLvs0AxVZ8qZTBsn-180" value="+ FazerLogin(u : UsuarioDTO): UsuarioDTO" style="text;strokeColor=none;fillColor=none;align=left;verticalAlign=top;spacingLeft=4;spacingRight=4;overflow=hidden;rotatable=0;points=[[0,0.5],[1,0.5]];portConstraint=eastwest;whiteSpace=wrap;html=1;" parent="pnIYlLvs0AxVZ8qZTBsn-170" vertex="1">
          <mxGeometry y="242" width="268" height="26" as="geometry" />
        </mxCell>
        <mxCell id="pnIYlLvs0AxVZ8qZTBsn-181" value="+ FazerLogOut(id : int): string" style="text;strokeColor=none;fillColor=none;align=left;verticalAlign=top;spacingLeft=4;spacingRight=4;overflow=hidden;rotatable=0;points=[[0,0.5],[1,0.5]];portConstraint=eastwest;whiteSpace=wrap;html=1;" parent="pnIYlLvs0AxVZ8qZTBsn-170" vertex="1">
          <mxGeometry y="268" width="268" height="26" as="geometry" />
        </mxCell>
        <mxCell id="pnIYlLvs0AxVZ8qZTBsn-183" value="" style="endArrow=diamondThin;endFill=0;endSize=20;html=1;rounded=0;entryX=0;entryY=0.5;entryDx=0;entryDy=0;exitX=1;exitY=0.5;exitDx=0;exitDy=0;edgeStyle=orthogonalEdgeStyle;" parent="1" source="pnIYlLvs0AxVZ8qZTBsn-151" target="pnIYlLvs0AxVZ8qZTBsn-161" edge="1">
          <mxGeometry width="160" relative="1" as="geometry">
            <mxPoint x="272" y="1532" as="sourcePoint" />
            <mxPoint x="432" y="1532" as="targetPoint" />
          </mxGeometry>
        </mxCell>
        <mxCell id="pnIYlLvs0AxVZ8qZTBsn-185" value="" style="endArrow=diamondThin;endFill=1;endSize=20;html=1;rounded=0;exitX=0.545;exitY=0.962;exitDx=0;exitDy=0;edgeStyle=orthogonalEdgeStyle;exitPerimeter=0;startSize=6;" parent="1" source="pnIYlLvs0AxVZ8qZTBsn-145" target="pnIYlLvs0AxVZ8qZTBsn-146" edge="1">
          <mxGeometry width="160" relative="1" as="geometry">
            <mxPoint x="22" y="1427" as="sourcePoint" />
            <mxPoint x="182" y="1427" as="targetPoint" />
          </mxGeometry>
        </mxCell>
        <mxCell id="pnIYlLvs0AxVZ8qZTBsn-186" value="Comentario" style="swimlane;fontStyle=1;align=center;verticalAlign=top;childLayout=stackLayout;horizontal=1;startSize=26;horizontalStack=0;resizeParent=1;resizeParentMax=0;resizeLast=0;collapsible=1;marginBottom=0;whiteSpace=wrap;html=1;rounded=1;fillColor=#ffe6cc;strokeColor=#d79b00;" parent="1" vertex="1">
          <mxGeometry x="648" y="900" width="268" height="294" as="geometry" />
        </mxCell>
        <mxCell id="pnIYlLvs0AxVZ8qZTBsn-187" value="- Id: int" style="text;strokeColor=none;fillColor=none;align=left;verticalAlign=top;spacingLeft=4;spacingRight=4;overflow=hidden;rotatable=0;points=[[0,0.5],[1,0.5]];portConstraint=eastwest;whiteSpace=wrap;html=1;" parent="pnIYlLvs0AxVZ8qZTBsn-186" vertex="1">
          <mxGeometry y="26" width="268" height="26" as="geometry" />
        </mxCell>
        <mxCell id="pnIYlLvs0AxVZ8qZTBsn-188" value="- Nome: string" style="text;strokeColor=none;fillColor=none;align=left;verticalAlign=top;spacingLeft=4;spacingRight=4;overflow=hidden;rotatable=0;points=[[0,0.5],[1,0.5]];portConstraint=eastwest;whiteSpace=wrap;html=1;" parent="pnIYlLvs0AxVZ8qZTBsn-186" vertex="1">
          <mxGeometry y="52" width="268" height="26" as="geometry" />
        </mxCell>
        <mxCell id="pnIYlLvs0AxVZ8qZTBsn-189" value="- Telefone: string" style="text;strokeColor=none;fillColor=none;align=left;verticalAlign=top;spacingLeft=4;spacingRight=4;overflow=hidden;rotatable=0;points=[[0,0.5],[1,0.5]];portConstraint=eastwest;whiteSpace=wrap;html=1;" parent="pnIYlLvs0AxVZ8qZTBsn-186" vertex="1">
          <mxGeometry y="78" width="268" height="26" as="geometry" />
        </mxCell>
        <mxCell id="pnIYlLvs0AxVZ8qZTBsn-190" value="- Senha: string" style="text;strokeColor=none;fillColor=none;align=left;verticalAlign=top;spacingLeft=4;spacingRight=4;overflow=hidden;rotatable=0;points=[[0,0.5],[1,0.5]];portConstraint=eastwest;whiteSpace=wrap;html=1;" parent="pnIYlLvs0AxVZ8qZTBsn-186" vertex="1">
          <mxGeometry y="104" width="268" height="26" as="geometry" />
        </mxCell>
        <mxCell id="pnIYlLvs0AxVZ8qZTBsn-191" value="- Email: string" style="text;strokeColor=none;fillColor=none;align=left;verticalAlign=top;spacingLeft=4;spacingRight=4;overflow=hidden;rotatable=0;points=[[0,0.5],[1,0.5]];portConstraint=eastwest;whiteSpace=wrap;html=1;" parent="pnIYlLvs0AxVZ8qZTBsn-186" vertex="1">
          <mxGeometry y="130" width="268" height="26" as="geometry" />
        </mxCell>
        <mxCell id="pnIYlLvs0AxVZ8qZTBsn-192" value="- Nif: string" style="text;strokeColor=none;fillColor=none;align=left;verticalAlign=top;spacingLeft=4;spacingRight=4;overflow=hidden;rotatable=0;points=[[0,0.5],[1,0.5]];portConstraint=eastwest;whiteSpace=wrap;html=1;" parent="pnIYlLvs0AxVZ8qZTBsn-186" vertex="1">
          <mxGeometry y="156" width="268" height="26" as="geometry" />
        </mxCell>
        <mxCell id="pnIYlLvs0AxVZ8qZTBsn-193" value="" style="line;strokeWidth=1;fillColor=none;align=left;verticalAlign=middle;spacingTop=-1;spacingLeft=3;spacingRight=3;rotatable=0;labelPosition=right;points=[];portConstraint=eastwest;strokeColor=inherit;" parent="pnIYlLvs0AxVZ8qZTBsn-186" vertex="1">
          <mxGeometry y="182" width="268" height="8" as="geometry" />
        </mxCell>
        <mxCell id="pnIYlLvs0AxVZ8qZTBsn-194" value="+ CriarConta(u : Usuario): string" style="text;strokeColor=none;fillColor=none;align=left;verticalAlign=top;spacingLeft=4;spacingRight=4;overflow=hidden;rotatable=0;points=[[0,0.5],[1,0.5]];portConstraint=eastwest;whiteSpace=wrap;html=1;" parent="pnIYlLvs0AxVZ8qZTBsn-186" vertex="1">
          <mxGeometry y="190" width="268" height="26" as="geometry" />
        </mxCell>
        <mxCell id="pnIYlLvs0AxVZ8qZTBsn-195" value="+ EditarConta(u : Usuario): string" style="text;strokeColor=none;fillColor=none;align=left;verticalAlign=top;spacingLeft=4;spacingRight=4;overflow=hidden;rotatable=0;points=[[0,0.5],[1,0.5]];portConstraint=eastwest;whiteSpace=wrap;html=1;" parent="pnIYlLvs0AxVZ8qZTBsn-186" vertex="1">
          <mxGeometry y="216" width="268" height="26" as="geometry" />
        </mxCell>
        <mxCell id="pnIYlLvs0AxVZ8qZTBsn-196" value="+ FazerLogin(u : UsuarioDTO): UsuarioDTO" style="text;strokeColor=none;fillColor=none;align=left;verticalAlign=top;spacingLeft=4;spacingRight=4;overflow=hidden;rotatable=0;points=[[0,0.5],[1,0.5]];portConstraint=eastwest;whiteSpace=wrap;html=1;" parent="pnIYlLvs0AxVZ8qZTBsn-186" vertex="1">
          <mxGeometry y="242" width="268" height="26" as="geometry" />
        </mxCell>
        <mxCell id="pnIYlLvs0AxVZ8qZTBsn-197" value="+ FazerLogOut(id : int): string" style="text;strokeColor=none;fillColor=none;align=left;verticalAlign=top;spacingLeft=4;spacingRight=4;overflow=hidden;rotatable=0;points=[[0,0.5],[1,0.5]];portConstraint=eastwest;whiteSpace=wrap;html=1;" parent="pnIYlLvs0AxVZ8qZTBsn-186" vertex="1">
          <mxGeometry y="268" width="268" height="26" as="geometry" />
        </mxCell>
        <mxCell id="hT-52-UHFEvAAX2J_I_--3" value="Negociacao" style="swimlane;fontStyle=1;align=center;verticalAlign=top;childLayout=stackLayout;horizontal=1;startSize=26;horizontalStack=0;resizeParent=1;resizeParentMax=0;resizeLast=0;collapsible=1;marginBottom=0;whiteSpace=wrap;html=1;rounded=1;fillColor=#ffe6cc;strokeColor=#d79b00;" vertex="1" parent="1">
          <mxGeometry x="-101.5" y="-325" width="268" height="294" as="geometry" />
        </mxCell>
        <mxCell id="hT-52-UHFEvAAX2J_I_--4" value="- Id: int" style="text;strokeColor=none;fillColor=none;align=left;verticalAlign=top;spacingLeft=4;spacingRight=4;overflow=hidden;rotatable=0;points=[[0,0.5],[1,0.5]];portConstraint=eastwest;whiteSpace=wrap;html=1;" vertex="1" parent="hT-52-UHFEvAAX2J_I_--3">
          <mxGeometry y="26" width="268" height="26" as="geometry" />
        </mxCell>
        <mxCell id="hT-52-UHFEvAAX2J_I_--5" value="- Nome: string" style="text;strokeColor=none;fillColor=none;align=left;verticalAlign=top;spacingLeft=4;spacingRight=4;overflow=hidden;rotatable=0;points=[[0,0.5],[1,0.5]];portConstraint=eastwest;whiteSpace=wrap;html=1;" vertex="1" parent="hT-52-UHFEvAAX2J_I_--3">
          <mxGeometry y="52" width="268" height="26" as="geometry" />
        </mxCell>
        <mxCell id="hT-52-UHFEvAAX2J_I_--6" value="- Telefone: string" style="text;strokeColor=none;fillColor=none;align=left;verticalAlign=top;spacingLeft=4;spacingRight=4;overflow=hidden;rotatable=0;points=[[0,0.5],[1,0.5]];portConstraint=eastwest;whiteSpace=wrap;html=1;" vertex="1" parent="hT-52-UHFEvAAX2J_I_--3">
          <mxGeometry y="78" width="268" height="26" as="geometry" />
        </mxCell>
        <mxCell id="hT-52-UHFEvAAX2J_I_--7" value="- Senha: string" style="text;strokeColor=none;fillColor=none;align=left;verticalAlign=top;spacingLeft=4;spacingRight=4;overflow=hidden;rotatable=0;points=[[0,0.5],[1,0.5]];portConstraint=eastwest;whiteSpace=wrap;html=1;" vertex="1" parent="hT-52-UHFEvAAX2J_I_--3">
          <mxGeometry y="104" width="268" height="26" as="geometry" />
        </mxCell>
        <mxCell id="hT-52-UHFEvAAX2J_I_--8" value="- Email: string" style="text;strokeColor=none;fillColor=none;align=left;verticalAlign=top;spacingLeft=4;spacingRight=4;overflow=hidden;rotatable=0;points=[[0,0.5],[1,0.5]];portConstraint=eastwest;whiteSpace=wrap;html=1;" vertex="1" parent="hT-52-UHFEvAAX2J_I_--3">
          <mxGeometry y="130" width="268" height="26" as="geometry" />
        </mxCell>
        <mxCell id="hT-52-UHFEvAAX2J_I_--9" value="- Nif: string" style="text;strokeColor=none;fillColor=none;align=left;verticalAlign=top;spacingLeft=4;spacingRight=4;overflow=hidden;rotatable=0;points=[[0,0.5],[1,0.5]];portConstraint=eastwest;whiteSpace=wrap;html=1;" vertex="1" parent="hT-52-UHFEvAAX2J_I_--3">
          <mxGeometry y="156" width="268" height="26" as="geometry" />
        </mxCell>
        <mxCell id="hT-52-UHFEvAAX2J_I_--10" value="" style="line;strokeWidth=1;fillColor=none;align=left;verticalAlign=middle;spacingTop=-1;spacingLeft=3;spacingRight=3;rotatable=0;labelPosition=right;points=[];portConstraint=eastwest;strokeColor=inherit;" vertex="1" parent="hT-52-UHFEvAAX2J_I_--3">
          <mxGeometry y="182" width="268" height="8" as="geometry" />
        </mxCell>
        <mxCell id="hT-52-UHFEvAAX2J_I_--11" value="+ CriarConta(u : Usuario): string" style="text;strokeColor=none;fillColor=none;align=left;verticalAlign=top;spacingLeft=4;spacingRight=4;overflow=hidden;rotatable=0;points=[[0,0.5],[1,0.5]];portConstraint=eastwest;whiteSpace=wrap;html=1;" vertex="1" parent="hT-52-UHFEvAAX2J_I_--3">
          <mxGeometry y="190" width="268" height="26" as="geometry" />
        </mxCell>
        <mxCell id="hT-52-UHFEvAAX2J_I_--12" value="+ EditarConta(u : Usuario): string" style="text;strokeColor=none;fillColor=none;align=left;verticalAlign=top;spacingLeft=4;spacingRight=4;overflow=hidden;rotatable=0;points=[[0,0.5],[1,0.5]];portConstraint=eastwest;whiteSpace=wrap;html=1;" vertex="1" parent="hT-52-UHFEvAAX2J_I_--3">
          <mxGeometry y="216" width="268" height="26" as="geometry" />
        </mxCell>
        <mxCell id="hT-52-UHFEvAAX2J_I_--13" value="+ FazerLogin(u : UsuarioDTO): UsuarioDTO" style="text;strokeColor=none;fillColor=none;align=left;verticalAlign=top;spacingLeft=4;spacingRight=4;overflow=hidden;rotatable=0;points=[[0,0.5],[1,0.5]];portConstraint=eastwest;whiteSpace=wrap;html=1;" vertex="1" parent="hT-52-UHFEvAAX2J_I_--3">
          <mxGeometry y="242" width="268" height="26" as="geometry" />
        </mxCell>
        <mxCell id="hT-52-UHFEvAAX2J_I_--14" value="+ FazerLogOut(id : int): string" style="text;strokeColor=none;fillColor=none;align=left;verticalAlign=top;spacingLeft=4;spacingRight=4;overflow=hidden;rotatable=0;points=[[0,0.5],[1,0.5]];portConstraint=eastwest;whiteSpace=wrap;html=1;" vertex="1" parent="hT-52-UHFEvAAX2J_I_--3">
          <mxGeometry y="268" width="268" height="26" as="geometry" />
        </mxCell>
        <mxCell id="hT-52-UHFEvAAX2J_I_--15" value="Contrato" style="swimlane;fontStyle=1;align=center;verticalAlign=top;childLayout=stackLayout;horizontal=1;startSize=26;horizontalStack=0;resizeParent=1;resizeParentMax=0;resizeLast=0;collapsible=1;marginBottom=0;whiteSpace=wrap;html=1;rounded=1;fillColor=#ffe6cc;strokeColor=#d79b00;" vertex="1" parent="1">
          <mxGeometry x="-739" y="1940" width="268" height="294" as="geometry" />
        </mxCell>
        <mxCell id="hT-52-UHFEvAAX2J_I_--16" value="- Id: int" style="text;strokeColor=none;fillColor=none;align=left;verticalAlign=top;spacingLeft=4;spacingRight=4;overflow=hidden;rotatable=0;points=[[0,0.5],[1,0.5]];portConstraint=eastwest;whiteSpace=wrap;html=1;" vertex="1" parent="hT-52-UHFEvAAX2J_I_--15">
          <mxGeometry y="26" width="268" height="26" as="geometry" />
        </mxCell>
        <mxCell id="hT-52-UHFEvAAX2J_I_--17" value="- Nome: string" style="text;strokeColor=none;fillColor=none;align=left;verticalAlign=top;spacingLeft=4;spacingRight=4;overflow=hidden;rotatable=0;points=[[0,0.5],[1,0.5]];portConstraint=eastwest;whiteSpace=wrap;html=1;" vertex="1" parent="hT-52-UHFEvAAX2J_I_--15">
          <mxGeometry y="52" width="268" height="26" as="geometry" />
        </mxCell>
        <mxCell id="hT-52-UHFEvAAX2J_I_--18" value="- Telefone: string" style="text;strokeColor=none;fillColor=none;align=left;verticalAlign=top;spacingLeft=4;spacingRight=4;overflow=hidden;rotatable=0;points=[[0,0.5],[1,0.5]];portConstraint=eastwest;whiteSpace=wrap;html=1;" vertex="1" parent="hT-52-UHFEvAAX2J_I_--15">
          <mxGeometry y="78" width="268" height="26" as="geometry" />
        </mxCell>
        <mxCell id="hT-52-UHFEvAAX2J_I_--19" value="- Senha: string" style="text;strokeColor=none;fillColor=none;align=left;verticalAlign=top;spacingLeft=4;spacingRight=4;overflow=hidden;rotatable=0;points=[[0,0.5],[1,0.5]];portConstraint=eastwest;whiteSpace=wrap;html=1;" vertex="1" parent="hT-52-UHFEvAAX2J_I_--15">
          <mxGeometry y="104" width="268" height="26" as="geometry" />
        </mxCell>
        <mxCell id="hT-52-UHFEvAAX2J_I_--20" value="- Email: string" style="text;strokeColor=none;fillColor=none;align=left;verticalAlign=top;spacingLeft=4;spacingRight=4;overflow=hidden;rotatable=0;points=[[0,0.5],[1,0.5]];portConstraint=eastwest;whiteSpace=wrap;html=1;" vertex="1" parent="hT-52-UHFEvAAX2J_I_--15">
          <mxGeometry y="130" width="268" height="26" as="geometry" />
        </mxCell>
        <mxCell id="hT-52-UHFEvAAX2J_I_--21" value="- Nif: string" style="text;strokeColor=none;fillColor=none;align=left;verticalAlign=top;spacingLeft=4;spacingRight=4;overflow=hidden;rotatable=0;points=[[0,0.5],[1,0.5]];portConstraint=eastwest;whiteSpace=wrap;html=1;" vertex="1" parent="hT-52-UHFEvAAX2J_I_--15">
          <mxGeometry y="156" width="268" height="26" as="geometry" />
        </mxCell>
        <mxCell id="hT-52-UHFEvAAX2J_I_--22" value="" style="line;strokeWidth=1;fillColor=none;align=left;verticalAlign=middle;spacingTop=-1;spacingLeft=3;spacingRight=3;rotatable=0;labelPosition=right;points=[];portConstraint=eastwest;strokeColor=inherit;" vertex="1" parent="hT-52-UHFEvAAX2J_I_--15">
          <mxGeometry y="182" width="268" height="8" as="geometry" />
        </mxCell>
        <mxCell id="hT-52-UHFEvAAX2J_I_--23" value="+ CriarConta(u : Usuario): string" style="text;strokeColor=none;fillColor=none;align=left;verticalAlign=top;spacingLeft=4;spacingRight=4;overflow=hidden;rotatable=0;points=[[0,0.5],[1,0.5]];portConstraint=eastwest;whiteSpace=wrap;html=1;" vertex="1" parent="hT-52-UHFEvAAX2J_I_--15">
          <mxGeometry y="190" width="268" height="26" as="geometry" />
        </mxCell>
        <mxCell id="hT-52-UHFEvAAX2J_I_--24" value="+ EditarConta(u : Usuario): string" style="text;strokeColor=none;fillColor=none;align=left;verticalAlign=top;spacingLeft=4;spacingRight=4;overflow=hidden;rotatable=0;points=[[0,0.5],[1,0.5]];portConstraint=eastwest;whiteSpace=wrap;html=1;" vertex="1" parent="hT-52-UHFEvAAX2J_I_--15">
          <mxGeometry y="216" width="268" height="26" as="geometry" />
        </mxCell>
        <mxCell id="hT-52-UHFEvAAX2J_I_--25" value="+ FazerLogin(u : UsuarioDTO): UsuarioDTO" style="text;strokeColor=none;fillColor=none;align=left;verticalAlign=top;spacingLeft=4;spacingRight=4;overflow=hidden;rotatable=0;points=[[0,0.5],[1,0.5]];portConstraint=eastwest;whiteSpace=wrap;html=1;" vertex="1" parent="hT-52-UHFEvAAX2J_I_--15">
          <mxGeometry y="242" width="268" height="26" as="geometry" />
        </mxCell>
        <mxCell id="hT-52-UHFEvAAX2J_I_--26" value="+ FazerLogOut(id : int): string" style="text;strokeColor=none;fillColor=none;align=left;verticalAlign=top;spacingLeft=4;spacingRight=4;overflow=hidden;rotatable=0;points=[[0,0.5],[1,0.5]];portConstraint=eastwest;whiteSpace=wrap;html=1;" vertex="1" parent="hT-52-UHFEvAAX2J_I_--15">
          <mxGeometry y="268" width="268" height="26" as="geometry" />
        </mxCell>
        <mxCell id="hT-52-UHFEvAAX2J_I_--35" value="Notificacao" style="swimlane;fontStyle=1;align=center;verticalAlign=top;childLayout=stackLayout;horizontal=1;startSize=26;horizontalStack=0;resizeParent=1;resizeParentMax=0;resizeLast=0;collapsible=1;marginBottom=0;whiteSpace=wrap;html=1;rounded=1;fillColor=#ffe6cc;strokeColor=#d79b00;" vertex="1" parent="1">
          <mxGeometry x="-313" y="2068" width="268" height="294" as="geometry" />
        </mxCell>
        <mxCell id="hT-52-UHFEvAAX2J_I_--36" value="- Id: int" style="text;strokeColor=none;fillColor=none;align=left;verticalAlign=top;spacingLeft=4;spacingRight=4;overflow=hidden;rotatable=0;points=[[0,0.5],[1,0.5]];portConstraint=eastwest;whiteSpace=wrap;html=1;" vertex="1" parent="hT-52-UHFEvAAX2J_I_--35">
          <mxGeometry y="26" width="268" height="26" as="geometry" />
        </mxCell>
        <mxCell id="hT-52-UHFEvAAX2J_I_--37" value="- Nome: string" style="text;strokeColor=none;fillColor=none;align=left;verticalAlign=top;spacingLeft=4;spacingRight=4;overflow=hidden;rotatable=0;points=[[0,0.5],[1,0.5]];portConstraint=eastwest;whiteSpace=wrap;html=1;" vertex="1" parent="hT-52-UHFEvAAX2J_I_--35">
          <mxGeometry y="52" width="268" height="26" as="geometry" />
        </mxCell>
        <mxCell id="hT-52-UHFEvAAX2J_I_--38" value="- Telefone: string" style="text;strokeColor=none;fillColor=none;align=left;verticalAlign=top;spacingLeft=4;spacingRight=4;overflow=hidden;rotatable=0;points=[[0,0.5],[1,0.5]];portConstraint=eastwest;whiteSpace=wrap;html=1;" vertex="1" parent="hT-52-UHFEvAAX2J_I_--35">
          <mxGeometry y="78" width="268" height="26" as="geometry" />
        </mxCell>
        <mxCell id="hT-52-UHFEvAAX2J_I_--39" value="- Senha: string" style="text;strokeColor=none;fillColor=none;align=left;verticalAlign=top;spacingLeft=4;spacingRight=4;overflow=hidden;rotatable=0;points=[[0,0.5],[1,0.5]];portConstraint=eastwest;whiteSpace=wrap;html=1;" vertex="1" parent="hT-52-UHFEvAAX2J_I_--35">
          <mxGeometry y="104" width="268" height="26" as="geometry" />
        </mxCell>
        <mxCell id="hT-52-UHFEvAAX2J_I_--40" value="- Email: string" style="text;strokeColor=none;fillColor=none;align=left;verticalAlign=top;spacingLeft=4;spacingRight=4;overflow=hidden;rotatable=0;points=[[0,0.5],[1,0.5]];portConstraint=eastwest;whiteSpace=wrap;html=1;" vertex="1" parent="hT-52-UHFEvAAX2J_I_--35">
          <mxGeometry y="130" width="268" height="26" as="geometry" />
        </mxCell>
        <mxCell id="hT-52-UHFEvAAX2J_I_--41" value="- Nif: string" style="text;strokeColor=none;fillColor=none;align=left;verticalAlign=top;spacingLeft=4;spacingRight=4;overflow=hidden;rotatable=0;points=[[0,0.5],[1,0.5]];portConstraint=eastwest;whiteSpace=wrap;html=1;" vertex="1" parent="hT-52-UHFEvAAX2J_I_--35">
          <mxGeometry y="156" width="268" height="26" as="geometry" />
        </mxCell>
        <mxCell id="hT-52-UHFEvAAX2J_I_--42" value="" style="line;strokeWidth=1;fillColor=none;align=left;verticalAlign=middle;spacingTop=-1;spacingLeft=3;spacingRight=3;rotatable=0;labelPosition=right;points=[];portConstraint=eastwest;strokeColor=inherit;" vertex="1" parent="hT-52-UHFEvAAX2J_I_--35">
          <mxGeometry y="182" width="268" height="8" as="geometry" />
        </mxCell>
        <mxCell id="hT-52-UHFEvAAX2J_I_--43" value="+ CriarConta(u : Usuario): string" style="text;strokeColor=none;fillColor=none;align=left;verticalAlign=top;spacingLeft=4;spacingRight=4;overflow=hidden;rotatable=0;points=[[0,0.5],[1,0.5]];portConstraint=eastwest;whiteSpace=wrap;html=1;" vertex="1" parent="hT-52-UHFEvAAX2J_I_--35">
          <mxGeometry y="190" width="268" height="26" as="geometry" />
        </mxCell>
        <mxCell id="hT-52-UHFEvAAX2J_I_--44" value="+ EditarConta(u : Usuario): string" style="text;strokeColor=none;fillColor=none;align=left;verticalAlign=top;spacingLeft=4;spacingRight=4;overflow=hidden;rotatable=0;points=[[0,0.5],[1,0.5]];portConstraint=eastwest;whiteSpace=wrap;html=1;" vertex="1" parent="hT-52-UHFEvAAX2J_I_--35">
          <mxGeometry y="216" width="268" height="26" as="geometry" />
        </mxCell>
        <mxCell id="hT-52-UHFEvAAX2J_I_--45" value="+ FazerLogin(u : UsuarioDTO): UsuarioDTO" style="text;strokeColor=none;fillColor=none;align=left;verticalAlign=top;spacingLeft=4;spacingRight=4;overflow=hidden;rotatable=0;points=[[0,0.5],[1,0.5]];portConstraint=eastwest;whiteSpace=wrap;html=1;" vertex="1" parent="hT-52-UHFEvAAX2J_I_--35">
          <mxGeometry y="242" width="268" height="26" as="geometry" />
        </mxCell>
        <mxCell id="hT-52-UHFEvAAX2J_I_--46" value="+ FazerLogOut(id : int): string" style="text;strokeColor=none;fillColor=none;align=left;verticalAlign=top;spacingLeft=4;spacingRight=4;overflow=hidden;rotatable=0;points=[[0,0.5],[1,0.5]];portConstraint=eastwest;whiteSpace=wrap;html=1;" vertex="1" parent="hT-52-UHFEvAAX2J_I_--35">
          <mxGeometry y="268" width="268" height="26" as="geometry" />
        </mxCell>
        <mxCell id="hT-52-UHFEvAAX2J_I_--71" style="edgeStyle=orthogonalEdgeStyle;rounded=0;orthogonalLoop=1;jettySize=auto;html=1;entryX=0.486;entryY=1;entryDx=0;entryDy=0;entryPerimeter=0;dashed=1;endArrow=open;endFill=0;endSize=15;" edge="1" parent="1" source="pnIYlLvs0AxVZ8qZTBsn-134" target="hT-52-UHFEvAAX2J_I_--68">
          <mxGeometry relative="1" as="geometry" />
        </mxCell>
        <mxCell id="hT-52-UHFEvAAX2J_I_--73" value="" style="endArrow=diamondThin;endFill=1;endSize=20;html=1;rounded=0;exitX=0;exitY=0.5;exitDx=0;exitDy=0;edgeStyle=orthogonalEdgeStyle;entryX=1;entryY=0.5;entryDx=0;entryDy=0;" edge="1" parent="1" source="pnIYlLvs0AxVZ8qZTBsn-194" target="pnIYlLvs0AxVZ8qZTBsn-143">
          <mxGeometry width="160" relative="1" as="geometry">
            <mxPoint x="421" y="1080" as="sourcePoint" />
            <mxPoint x="310" y="1190" as="targetPoint" />
          </mxGeometry>
        </mxCell>
        <mxCell id="hT-52-UHFEvAAX2J_I_--74" value="" style="endArrow=diamondThin;endFill=1;endSize=20;html=1;rounded=0;exitX=0;exitY=0.5;exitDx=0;exitDy=0;edgeStyle=orthogonalEdgeStyle;entryX=0.478;entryY=0.962;entryDx=0;entryDy=0;entryPerimeter=0;" edge="1" parent="1" source="pnIYlLvs0AxVZ8qZTBsn-176" target="pnIYlLvs0AxVZ8qZTBsn-157">
          <mxGeometry width="160" relative="1" as="geometry">
            <mxPoint x="159" y="1638" as="sourcePoint" />
            <mxPoint x="48" y="1748" as="targetPoint" />
          </mxGeometry>
        </mxCell>
      </root>
    </mxGraphModel>
  </diagram>
</mxfile>
